<?xml version="1.0" encoding="utf-8"?>
<!-- Generator: Adobe Illustrator 24.0.1, SVG Export Plug-In . SVG Version: 6.00 Build 0)  -->
<svg version="1.1" id="Слой_1" xmlns="http://www.w3.org/2000/svg" xmlns:xlink="http://www.w3.org/1999/xlink" x="0px" y="0px"
	 viewBox="0 0 194.4 67" style="enable-background:new 0 0 194.4 67;" xml:space="preserve">
<style type="text/css">
	.st0{fill:#FFFFFF;}
	.st1{fill:#18CFAB;}
	.st2{fill:#19CEAB;}
</style>
<path class="st0" d="M75.4,44.4c-0.4,0.4-1,0.7-1.6,0.9c-0.6,0.2-1.3,0.3-2,0.3c-1.6,0-2.8-0.4-3.6-1.3c-0.9-0.9-1.3-2.1-1.3-3.6
	V30.5h-3v-1.9h3v-3.7h2.3v3.7h5.1v1.9h-5.1v10c0,1,0.2,1.8,0.7,2.3c0.5,0.5,1.2,0.8,2.2,0.8c0.5,0,0.9-0.1,1.3-0.2
	c0.4-0.1,0.8-0.4,1.2-0.6L75.4,44.4z M88.1,28.4c2.1,0,3.8,0.6,5,1.9c1.3,1.2,1.9,3,1.9,5.3v9.8h-2.3v-9.5c0-1.7-0.4-3.1-1.3-4
	c-0.9-0.9-2.1-1.4-3.7-1.4c-1.8,0-3.3,0.5-4.3,1.6c-1,1.1-1.6,2.5-1.6,4.4v8.8h-2.3V21.6h2.3v9.9c0.6-1,1.5-1.7,2.6-2.3
	S86.7,28.4,88.1,28.4z M115.9,37.7h-14.1c0.1,1.7,0.8,3.2,2,4.3c1.2,1.1,2.8,1.6,4.6,1.6c1,0,2-0.2,2.9-0.5c0.9-0.4,1.6-0.9,2.3-1.7
	l1.3,1.5c-0.7,0.9-1.7,1.6-2.8,2c-1.1,0.5-2.3,0.7-3.7,0.7c-1.7,0-3.3-0.4-4.6-1.1c-1.3-0.7-2.4-1.8-3.1-3.1
	c-0.7-1.3-1.1-2.8-1.1-4.4s0.4-3.1,1.1-4.4c0.7-1.3,1.7-2.3,2.9-3c1.3-0.7,2.7-1.1,4.2-1.1c1.6,0,3,0.4,4.2,1.1
	c1.2,0.7,2.2,1.7,2.9,3c0.7,1.3,1.1,2.8,1.1,4.4L115.9,37.7z M107.8,30.4c-1.6,0-3,0.5-4.1,1.6c-1.1,1-1.7,2.4-1.9,4h11.9
	c-0.2-1.7-0.8-3-1.9-4C110.8,30.9,109.4,30.4,107.8,30.4z"/>
<path class="st1" d="M140.6,23v22.4h-5.2v-9.2h-10.2v9.2h-5.2V23h5.2v8.8h10.2V23H140.6z M152.5,27.9c2.7,0,4.7,0.6,6.1,1.9
	c1.4,1.3,2.1,3.2,2.1,5.7v9.8h-4.7v-2.1c-0.9,1.6-2.7,2.4-5.2,2.4c-1.3,0-2.5-0.2-3.5-0.7c-1-0.4-1.7-1.1-2.2-1.9
	c-0.5-0.8-0.8-1.7-0.8-2.7c0-1.6,0.6-2.9,1.8-3.8c1.2-0.9,3.1-1.4,5.6-1.4h4c0-1.1-0.3-1.9-1-2.5c-0.7-0.6-1.7-0.9-3-0.9
	c-0.9,0-1.8,0.1-2.7,0.4c-0.9,0.3-1.6,0.7-2.2,1.2l-1.8-3.5c0.9-0.7,2.1-1.2,3.4-1.5C149.8,28.1,151.1,27.9,152.5,27.9z M152.1,42.3
	c0.9,0,1.6-0.2,2.3-0.6c0.7-0.4,1.1-1,1.4-1.8v-1.8h-3.4c-2,0-3.1,0.7-3.1,2c0,0.6,0.2,1.2,0.7,1.5
	C150.5,42.1,151.2,42.3,152.1,42.3z M187.3,27.9c2.2,0,3.9,0.6,5.1,1.9c1.3,1.3,1.9,3.2,1.9,5.7v9.9h-5v-9.1c0-1.4-0.3-2.4-0.9-3
	c-0.6-0.7-1.4-1-2.4-1c-1.2,0-2.1,0.4-2.8,1.2c-0.7,0.7-1,1.9-1,3.4v8.6h-5v-9.1c0-2.7-1.1-4.1-3.3-4.1c-1.2,0-2.1,0.4-2.8,1.2
	c-0.7,0.7-1,1.9-1,3.4v8.6h-5V28.2h4.8v2c0.6-0.7,1.4-1.3,2.3-1.7c0.9-0.4,2-0.6,3.1-0.6c1.2,0,2.3,0.2,3.3,0.7
	c1,0.5,1.8,1.2,2.4,2.1c0.7-0.9,1.6-1.6,2.7-2.1C184.9,28.2,186.1,27.9,187.3,27.9z"/>
<g>
	<g>
		<g>
			<path class="st2" d="M58,17c0,11,0,22,0,33c-9.3,5.7-18.7,11.3-28,17c-0.3,0-0.7,0-1,0C19.3,61.7,9.7,56.3,0,51
				c0-11.3,0-22.7,0-34C9.3,11.3,18.7,5.7,28,0c0.3,0,0.7,0,1,0C38.7,5.7,48.3,11.3,58,17z"/>
		</g>
	</g>
	<path class="st0" d="M41.8,19.5v28h-6.5V36H22.7v11.5h-6.5v-28h6.5v11h12.7v-11H41.8z"/>
</g>
</svg>
